# xmcd CD database file
#
# Track frame offsets:
#	150
#	18039
#	39997
#	68607
#	88184
#	113053
#	134163
#	164487
#	177590
#	190453
#
# Disc length: 2799 seconds
#
# Revision: 0
# Processed by: cddbd v1.5.1PL2 Copyright (c) Steve Scherf et al.
# Submitted via: CDex 1.51
#
DISCID=880aed0a
DTITLE=Geraldo Flach Quarteto - Atitude
DYEAR=1998
DGENRE=Jazz
TTITLE0=Desafinado
TTITLE1=Kakaia
TTITLE2=O mapa da Cidade
TTITLE3=Espelho d'Agua
TTITLE4=Para siempre
TTITLE5=Reencontro
TTITLE6=Vidro dos Olhos
TTITLE7=Baiaozinho
TTITLE8=Amor Contente
TTITLE9=Años de Soledad
EXTD=YEAR: 1998
EXTT0=
EXTT1=
EXTT2=
EXTT3=
EXTT4=
EXTT5=
EXTT6=
EXTT7=
EXTT8=
EXTT9=
PLAYORDER=
